#!OML:ASF F:\VICON\USERDATA\INSTALL\rory3\rory3.ASF
:FULLY-SPECIFIED
:DEGREES
320
root 5.36357 17.5874 29.8877 -1.05942 -7.29859 -4.54044
lowerback 9.73323 2.72507 4.92237
upperback 0.213563 4.24135 1.30521
thorax -4.9757 1.98884 -1.97625
lowerneck -16.0134 -3.20379 -1.99264
upperneck 18.8802 -4.2879 1.6813
head 8.61191 -1.98594 0.378688
rclavicle 8.24335e-015 5.86415e-015
rhumerus -22.6777 -12.5205 -81.7909
rradius 32.2749
rwrist 0.08092
rhand -18.0504 23.6926
rfingers 7.12502
rthumb 8.2217 -6.12746
lclavicle 8.24335e-015 5.86415e-015
lhumerus -41.7783 0.387782 87.2576
lradius 28.454
lwrist 8.58434
lhand -28.1534 16.6066
lfingers 7.12502
lthumb -1.53411 46.5808
rfemur 12.0676 6.66241 28.6008
rtibia 36.356
rfoot -12.1329 0.198973
rtoes -8.21737
lfemur -27.4181 1.35576 -16.2758
ltibia 27.6635
lfoot -1.69101 -3.48917
ltoes 1.79552
321
root 5.3767 17.5882 30.1024 -1.27927 -7.15508 -4.34719
lowerback 9.96492 2.75489 4.73942
upperback 0.0892323 4.27637 1.22589
thorax -5.24121 2.00016 -1.98004
lowerneck -15.7853 -3.33811 -2.16999
upperneck 19.117 -4.50273 1.96866
head 8.66718 -2.06981 0.480235
rclavicle 6.6158e-015 5.96354e-016
rhumerus -23.363 -13.5136 -81.4868
rradius 32.0798
rwrist 0.516894
rhand -18.2229 23.5901
rfingers 7.12502
rthumb 8.05525 -6.23639
lclavicle 6.6158e-015 5.96354e-016
lhumerus -41.6626 0.966039 86.5018
lradius 28.1776
lwrist 4.6328
lhand -23.7415 22.7369
lfingers 7.12502
lthumb 2.72699 52.6992
rfemur 11.6399 6.57524 28.3471
rtibia 38.1076
rfoot -9.7447 0.538833
rtoes -7.06766
lfemur -27.2287 1.4407 -16.6573
ltibia 28.7623
lfoot -1.65438 -4.00359
ltoes 2.61701
322
root 5.39971 17.5953 30.3146 -1.51963 -7.05271 -4.11264
lowerback 10.238 2.74412 4.56294
upperback 0.0428293 4.25557 1.14801
thorax -5.45135 1.98668 -1.97848
lowerneck -15.6075 -3.40241 -1.95208
upperneck 19.0844 -4.60077 1.74932
head 8.61496 -2.12529 0.361948
rclavicle 5.66909e-014 1.1281e-014
rhumerus -23.8367 -14.2249 -81.2657
rradius 31.8571
rwrist 0.849117
rhand -18.4631 23.2766
rfingers 7.12502
rthumb 7.8234 -6.55865
lclavicle 5.66909e-014 1.1281e-014
lhumerus -41.595 0.403698 86.9023
lradius 27.4507
lwrist 7.47638
lhand -26.2882 20.875
lfingers 7.12502
lthumb 0.267374 50.8546
rfemur 11.0936 6.44912 27.9392
rtibia 39.9152
rfoot -6.73421 0.956169
rtoes -6.2739
lfemur -27.0104 1.74449 -17.1921
ltibia 29.9159
lfoot -2.20712 -4.01776
ltoes 1.40995
323
root 5.43355 17.5992 30.5474 -1.65157 -6.9554 -3.98336
lowerback 10.0701 2.73162 4.67907
upperback 0.120729 4.23475 1.06777
thorax -5.2617 1.97914 -2.11086
lowerneck -15.5958 -3.46446 -1.80959
upperneck 18.9993 -4.69468 1.63296
head 8.57907 -2.17223 0.289031
rclavicle 1.76328e-014 -4.72114e-015
rhumerus -24.1037 -15.01 -81.0342
rradius 31.5462
rwrist 0.944149
rhand -18.2326 23.004
rfingers 7.12502
rthumb 8.04587 -6.8228
lclavicle 1.76328e-014 -4.72114e-015
lhumerus -41.1665 1.48876 85.9333
lradius 27.6922
lwrist 3.16315
lhand -18.0202 29.5427
lfingers 7.12502
lthumb 8.25089 59.3616
rfemur 10.4712 6.16225 27.4398
rtibia 41.7825
rfoot -3.63624 1.50299
rtoes -6.2169
lfemur -26.7083 2.08601 -17.682
ltibia 31.0833
lfoot -2.7648 -3.97318
ltoes 1.8659
324
root 5.46624 17.6021 30.7773 -1.68114 -6.99968 -4.25474
lowerback 9.78132 2.7207 5.14755
upperback 0.200512 4.25549 1.13504
thorax -4.98621 1.9881 -2.28319
lowerneck -15.5867 -3.48851 -1.95185
upperneck 19.0397 -4.74909 1.8848
head 8.60262 -2.18128 0.390078
rclavicle -1.93629e-014 -1.04362e-014
rhumerus -24.4522 -15.8903 -80.7438
rradius 31.2443
rwrist 1.26741
rhand -18.0185 23.2135
rfingers 7.12502
rthumb 8.25249 -6.60534
lclavicle -1.93629e-014 -1.04362e-014
lhumerus -40.9019 1.72039 85.8293
lradius 26.9151
lwrist 3.8369
lhand -21.1668 26.2465
lfingers 7.12502
lthumb 5.21334 56.1624
rfemur 9.65103 6.05373 27.4313
rtibia 43.7569
rfoot -0.636943 2.12006
rtoes -4.77956
lfemur -26.3757 2.53084 -17.6948
ltibia 32.0926
lfoot -3.32896 -4.49163
ltoes 3.56305
325
root 5.49287 17.6143 30.9863 -1.7368 -7.24514 -4.47189
lowerback 9.94694 2.77382 5.46644
upperback 0.100476 4.38054 1.18674
thorax -5.15644 2.03508 -2.43589
lowerneck -15.556 -3.4617 -2.08491
upperneck 19.3104 -4.73032 2.07988
head 8.69742 -2.1596 0.478405
rclavicle -5.44173e-015 9.74045e-015
rhumerus -25.1117 -16.5001 -80.4859
rradius 31.1456
rwrist 1.42994
rhand -17.9443 22.7091
rfingers 7.12502
rthumb 8.32408 -7.1069
lclavicle -5.44173e-015 9.74045e-015
lhumerus -40.824 2.2453 85.4071
lradius 26.5735
lwrist 2.90963
lhand -22.2171 24.414
lfingers 7.12502
lthumb 4.19909 54.3524
rfemur 8.55985 6.34288 27.531
rtibia 45.9072
rfoot 2.60345 2.62276
rtoes -1.06347
lfemur -25.9601 2.86624 -17.6425
ltibia 32.8889
lfoot -4.03981 -4.73512
ltoes 6.06015
326
root 5.51832 17.6339 31.1879 -1.86888 -7.57134 -3.92716
lowerback 10.2818 2.85659 4.93498
upperback -0.023531 4.44873 1.04769
thorax -5.49813 2.06786 -2.32085
lowerneck -15.6488 -3.38067 -2.03651
upperneck 19.6085 -4.6227 2.01384
head 8.81062 -2.1093 0.457945
rclavicle -2.67365e-014 -2.18663e-014
rhumerus -25.6214 -16.8743 -80.3158
rradius 30.9019
rwrist 1.64067
rhand -18.0165 22.3472
rfingers 7.12502
rthumb 8.25439 -7.4716
lclavicle -2.67365e-014 -2.18663e-014
lhumerus -40.755 2.81951 84.9407
lradius 26.5962
lwrist 1.76361
lhand -21.8116 26.2151
lfingers 7.12502
lthumb 4.59068 56.1453
rfemur 7.31109 6.78455 26.8352
rtibia 48.2331
rfoot 5.54357 2.76736
rtoes 3.89258
lfemur -25.4133 3.04462 -18.3989
ltibia 33.4705
lfoot -4.79102 -4.39364
ltoes 8.65995
327
root 5.54304 17.6556 31.3897 -1.88344 -7.8762 -3.40071
lowerback 10.2938 2.95245 4.48535
upperback -0.0706821 4.51569 0.878886
thorax -5.56958 2.10839 -2.25912
lowerneck -15.7987 -3.33486 -1.87927
upperneck 19.883 -4.57956 1.90308
head 8.9242 -2.0856 0.395746
rclavicle -3.13831e-014 -1.25234e-014
rhumerus -25.9661 -17.4354 -80.1838
rradius 30.5322
rwrist 1.9704
rhand -17.9186 22.6893
rfingers 7.12502
rthumb 8.3489 -7.12567
lclavicle -3.13831e-014 -1.25234e-014
lhumerus -40.7396 3.15813 84.579
lradius 27.0877
lwrist 1.09534
lhand -19.4671 31.594
lfingers 7.12502
lthumb 6.85424 61.4631
rfemur 5.80648 7.1022 26.073
rtibia 50.693
rfoot 8.75453 2.587
rtoes 6.86954
lfemur -24.8792 3.06234 -19.1344
ltibia 33.8024
lfoot -5.26393 -3.87499
ltoes 8.51177
328
root 5.56716 17.6685 31.5896 -1.90988 -8.13402 -3.30323
lowerback 10.3232 2.9869 4.48107
upperback -0.0554637 4.55936 0.835175
thorax -5.56379 2.12973 -2.30962
lowerneck -15.7577 -3.32216 -1.73807
upperneck 19.7931 -4.57856 1.82493
head 8.88029 -2.08418 0.347485
rclavicle -4.83916e-015 -1.07344e-014
rhumerus -26.3513 -17.5525 -80.1352
rradius 30.4274
rwrist 1.91469
rhand -17.8803 22.9292
rfingers 7.12502
rthumb 8.38581 -6.88438
lclavicle -4.83916e-015 -1.07344e-014
lhumerus -40.6919 3.45727 84.2962
lradius 27.6516
lwrist 0.704469
lhand -17.9865 33.7235
lfingers 7.12502
lthumb 8.28336 63.5411
rfemur 4.37415 7.50759 25.8731
rtibia 53.2007
rfoot 12.4163 2.27524
rtoes 4.59523
lfemur -24.1902 3.04702 -19.3852
ltibia 33.9607
lfoot -5.59745 -3.4901
ltoes 6.92002
